<svg id="Layer_1" data-name="Layer 1" xmlns="http://www.w3.org/2000/svg" viewBox="0 0 4598 4352"><title>Untitled-1</title><path d="M1248.25,3150c-.77-1.86-1.22-2.43-1.22-3q0-487.75,0-975c1-1,1.44-1.85,1.91-1.85q363.87-.09,728-.06l4.19,3.9h35.84l4.41,4.12h15.79l3,3c2.26,1.71,5,.59,7.52.85,1.93.2,3.88.2,5.61.28l3,3c3.83,1.34,7.8.45,12.19.75l4.56,3.73h7.29l4.59,4,3.88.23,4.28,4h7.85l4.28,4,3.76.23,4.73,3.78c3.94-1.09,5.28,3.75,8.35,3.85s4.4,2.78,6.59,3.49c3.11,1,6.22,1.48,8,4.45l4.14.22,8.38,8,4.1.29a9.35,9.35,0,0,0,8.22,4.23l11.32,11.32,2.77.12,47.5,47.5.38,3,7.07,7.07.61,5.15,7.85,6.14v5.1l4,4.29.28,4,7.49,7.49.35,7.85c.32,2.12,4.09,2.86,3.82,5.78-.3,3.25,2.27,4.48,4,6.55v7.76l4.12,4.42v7.81l4.12,4.48v19.73l3.24,3.24c1.52,4.86.31,10.16.57,15.37.23,4.65.16,9.33,0,14-.15,5.26.58,10.55-.39,15.67l-3.1,3.1c-1.13,5-.13,10.32-.53,16l-3.75,4.5v11.38l-4.12,4.63v7.66l-4.12,4.42v3.74c-1.4,1.61-3.17,2.9-3.83,4.62s.07,3.83-1.82,5.28a5.46,5.46,0,0,0-2.2,3c-.25,2-.34,3.77-2,5.22a8.33,8.33,0,0,0-2,3.13,21.2,21.2,0,0,0-.83,3.65l-7.14,7.14v3.81l-8,8.48-.36,4.13-49.48,49.48-4.92.23c-1.26,1.44-2.89,3.54-4.76,5.4-2.32,2.29-4.83,4.38-7.27,6.55-3.07-.59-4.83,1.41-6.6,3.37-4.25.12-7.08,2.66-9.67,5.64-.87,1-1.87,1.89-2.89,2.91h-3.78l-4.47,4.12h-3.76l-4.41,4c-4.26-1.55-5.48,3-8.47,3.95-3.83.19-8.15-1.13-10.59,3.4-3.17.58-6.39,1.08-8.2,4.42h-7.89l-4.51,4.07c-1.7.4-4.26-.81-5.19,1.45-.86,2.09,1.77,2.8,2.74,4.19a7.61,7.61,0,0,0,1.41,1.41c.48.4,1,.71,1.82,1.24h15.4l3.26,3.26,9,1,3.25,3.25h7.48l4.85,4.12h7.48l4.54,4.12h7.75l4.47,4.12h3.66l4.6,4.12h7.24l5.1,3.81c3.94-1.08,5.15,3.94,8.34,3.89s4.45,2.29,6.53,3.71c.93.64,2.52.3,4.06.42l8.38,8,4,.17c2.06,2.74,4.61,4.52,8.22,4.23l7.08,7.08,4.58.63,12,11.88,4.17.22,45.31,45.31c.72,2.27.28,5,2.71,6.82A59.49,59.49,0,0,1,2295,2780v5.12l7.89,6.17c.28,2.6-.07,4.51.63,5,2.85,2.17,3,5.48,4.33,8.26,1.08,2.21,3.28,3.64,3.37,6.69,0,1.56,2.18,3.05,3.66,4.93v7.42l4.12,4.47v7.81l4.12,4.41v15.81L2326,2859c1.4,14.67,1.59,40.69.56,77.4l-3.33,3.33-.48,12.48-3.51,3.51v6.79c-1.27,3.66-5.76,4.93-4.21,9.17l-4,4.36v3.81l-4,4.3-.21,4c-2.8,2-4.43,4.66-4.23,8.22l-7.08,7.08-.39,3-18,18c-2.55,5-1.69,7.83-4.17,9.67a27.9,27.9,0,0,0-5.64,5.64c-1.84,2.45-4.61,1.84-8.71,3.45l-18.78,18.78-3.19.34-11.31,11.31-4.05.3-4.3,4h-3.84c-.5.48-1,.94-1.46,1.39l-7.25,6.63c-4.5-1.38-5.93,4.79-10.36,4.12-2-.3-2.93,2.41-4.57,3.3s-3.67.8-5.33,1.58c-1.14.53-1.92,1.81-2.86,2.75l-4,.27-4.28,4h-3.83l-4.41,4.12h-8c-1.88,3.1-4.83,4.13-8.19,4.35-2.42,4.43-6.66,3.44-11,3.54l-4.59,3.76h-7.3l-4.71,4.12h-7.62l-4.41,4.12h-11.84l-4.42,4.12h-11.77l-3,3c-4.31,2-9,.14-13.15,1.15l-3.09,3.09c-5.69,1.82-11.72-.49-17.41,1.41l-3.05,3.05h-19.59l-4.68,4.12h-27.64l-4.4,4.11Zm216-431.21c-.4.5-1.16,1-1.16,1.5q-.08,147.85,0,295.69c0,.46.9.92,2,2H1937l3.38-3.38c3.06-1.3,6.38-.37,9.61-.61,3.9-.3,7.86.59,11.67-.67l3.1-3.1h11.55l4.73-4.11h7.59l4.44-4.12h7.82l4.29-4,3.77-.2c1.66-1.35,3-3.1,4.72-3.67s4,0,5.16-2c1.62-2.65,4.88-1.38,6.78-2.89,2-1.64,3.62-3.83,6.68-3.25q3.64-3.28,7.27-6.56c.49-.45.94-.94,1.43-1.42h3.68l38.39-38.39v-3.68l7.19-7.19c1.43-2,0-5.19,2.75-6.76,3.16-1.82.9-6.46,4.23-8.25a8.9,8.9,0,0,0,1.6-1.57v-7.67l4.12-4.56v-11.69l4-4.36v-27.83l-4.11-4.51V2840l-4.12-4.81v-7.5l-3.26-3.26-1-9-7.39-7.39v-3.77l-4.12-4.46v-2.59l-43.34-43.34-3.07-.37-7.08-7.08a9.21,9.21,0,0,1-8.21-4.22l-4-.25-4.28-4h-3.84l-4.4-4.11h-7.83c-2.09-2.93-4.76-4.5-8.08-4.34l-3.42-2.81c-5.19-1.47-9.2.13-13-1.4L1969,2722c-2.77,0-6,.13-9.29,0-3.87-.19-7.85.83-11.56-.82L1945,2718q-239.29,0-479.12,0C1465.32,2718,1464.77,2718.53,1464.21,2718.79Zm544-172.76,18.91-18.45v-3.65c2.43-2.43,4.81-4.76,7.12-7.16a2.39,2.39,0,0,0,.76-1.65c-.49-3.12,2.43-4.45,3.3-6.65,1.17-3,1.5-6.2,4.44-8.16-.21-3.58,1.46-6.2,4.27-8.16v-8l4.12-4.42v-15.65l3.7-4.17v-20.09l-3.37-3.37c-.92-2.82-.22-6.13-.42-9.36-.25-3.91.58-7.87-.64-11.7l-2.91-2.91-1.08-9.08-3.11-3.11-.28-4-4-4.29v-3.83l-4-4.29c-.08-1.42-.15-2.73-.23-4-11.24-11.26-11.24-11.26-11.67-14.34L2003.71,2346h-3.78l-6.17-7.9c-2.6-.27-4.27.06-5.09-.62-2.55-2.12-4.79-4.63-7.15-7a9.42,9.42,0,0,1-8.22-4.23l-4.06-.3-4.3-4h-3.81l-4.42-4.12h-7.66l-4.66-4.12H1937l-4.52-3.73c-5.72-.41-11,.63-16-.54L1913,2306q-223.14,0-447.26,0c-.54,0-1.09.56-1.63.86-.37.51-1.06,1-1.06,1.54q.08,141.93.3,283.86c0,.47.88.94,1.5,1.56h428l4.18-3.81h19.79l4.46-4.12h11.64l4.62-4.12h7.65c2-2,3.62-3.7,6.68-4,2.21-.23,4.2-2.52,6.13-3.78h6.24a14.61,14.61,0,0,0,3-2.34c1.46-1.92,3.41-1.62,5.5-1.66l4.31-4h5.08l6.14-7.86,5.15-.6,11.31-11.31Z"/><path d="M3217.76,2626h10.76l4.52,3.83h11.47l4.55,4.12h11.73l4.47,4.12h11.68l4.58,4.12h7.66l3.27,3.27,9,1,3.26,3.26h7.5l4.83,4.12h7.51l4.51,4.12h7.79l4.46,4.12h7.92a9.24,9.24,0,0,0,8.18,4.32c2.1,4.85,8.92,2.3,11.07,7.07l8.52.78c2.2.75,3.46,5.25,7.7,3.7l4.37,4h3.81l4.3,4,4,.2,7.07,7.07c1.23.25,2.48.44,3.69.74,3.05.75,4.4,5.08,8.34,4l9,8h4.91l6.12,7.84,5.15.64,45.25,45.25.3,4.1,8,8.38.19,3.75,3.81,4.68c-1.1,3.95,3.69,5.32,3.84,8.35s2.67,4.41,3.47,6.61c1.1,3,1.43,6.25,4.57,8.12v7.95l4.12,4.42v11.84l4.12,4.41v19.78l2.94,2.94c.31.54.9,1.07.9,1.61,0,15.93,0,31.87,0,47.33l-3.43,3.42c-1.78,6.91.63,14.24-1.15,21.15l-3.19,3.19v11.58l-4.12,4.7v7.63l-4.12,4.42v7.83l-4,4.29-.25,3.75c-1.35,1.71-3.51,3.19-3.56,4.75-.1,3-1.84,4.62-3.42,6.7-1,1.37-1,3.53-1.5,5.31l-7.09,7.09c-.06,1.31-.13,2.61-.2,4.14l-11.87,12c-.29,2.06-.47,3.32-.65,4.58l-36.83,36.83c-2.11,1.11-4.87.35-6.84,2.69-3,3.55-6.51,6.66-9.8,10h-4c-1.89,1.89-4.17,3.53-5.57,5.72-2.06,3.21-6.47,1.1-8.32,4.19-1.6,2.68-4.7,1.54-6.77,2.75l-7.14,7.14-4,.19-4.32,4h-3.81l-4.33,4c-2.1,0-4-.23-5.5,1.67a14.52,14.52,0,0,1-3,2.33c-3.83.21-8.16-1.18-10.6,3.36-2.24,1-5.23.17-6.84,2.82-1.22,2-3.44,1.35-5.19,2s-3,2.35-4.75,3.78h-7.55l-4.47,4.12h-7.76l-4.53,4.12h-7.7l-3.25,3.25-9,1-2.95,2.95c-3.84,1.44-7.85-.17-13,1.34l-3.65,3.07h-7.44l-4.57,4.12h-15.7l-4.47,4.12h-15.83l-3,3c-3.62,1.91-7.62.71-11.48.94-3.27.19-6.57,0-9.49,0l-3.24,3.24c-4.42,1.56-9.05.55-13.61.73-3.92.16-7.85,0-11.16,0l-3.42,3.42a6.27,6.27,0,0,1-1.76.55c-10,0-20,0-30.35,0l-4.52,3.83h-51.47l-4.55,4.12H2961.11l-4.34-4h-59.83l-2.88-2.88c-.52-.35-1-.95-1.57-1a35.45,35.45,0,0,0-4,0H2861l-3.41-3.41c-4.91-1.44-10.21-.22-15.42-.57-4.58-.31-9.21.54-13.73-.58l-2.85-2.85a6.23,6.23,0,0,0-1.76-.56c-7.33,0-14.66,0-22.35,0l-4.52-3.83h-15.47l-4.55-4.12h-19.73l-4.47-4.12h-15.69l-4.58-4.12h-11.66l-3.27-3.27c-5.45-1.51-11.43.18-16.71-.71l-3.29-3.29c-3.86-1.31-7.86.12-12.8-1.15l-3.8-3.24h-7.5l-4.52-4.12h-11.77l-4.47-4.12h-7.63l-4.62-4.12h-7.64l-3.27-3.27-9-1-3.27-3.27h-7.52l-4.79-4.12h-7.54l-4.48-4.12h-7.81l-4.42-4.12h-7.87c-2.22-2.58-4.44-5-7.88-3.95l-3.21-3.22c-1.23-.25-2.5-.81-3.69-.68-3.58.4-6.45-.58-8.56-3.56-3.18-.58-6.61-.67-7.83-4.37h-8.3l-4.44-4.12h-3.83l-4.29-4-4-.23c-1.94-1.64-3.23-4.31-6.45-3.82-.57.09-1.56-.09-1.75-.46-2.07-4-7.17-2.57-9.72-5.62-.43-.51-.94-.95-1.64-1.65h-7.58l-4.59-4-3.87-.23-4.28-4H2473l-7.07-7.07-4.74-1.25-6.11-5.42v-4.33l7.15-7.15,1.41-5.41L2475,3000v-4.21c3.21-3.15,6.36-6.62,9.93-9.59,2.35-2,1.68-4.69,2.7-6.83L2499,2968v-4.06c3.74-3.72,7.61-7.4,11.23-11.3.73-.78.54-2.41.78-3.64a5.2,5.2,0,0,1,.73-1.69c3.74-3.79,7.54-7.54,11.28-11.26V2932l11.39-11.39c1-2.14.35-4.88,2.7-6.83,3.57-3,6.72-6.44,9.93-9.59V2900c2-2.27,4.32-2.75,6.83-1a21.87,21.87,0,0,1,2.85,2.79l4.11.31,8.38,8,3.75.18,4.66,3.82c3.95-1.1,5.33,3.68,8.35,3.83s4.52,2.11,6.61,3.56c1.43,1,3.64.82,5.31,1.59,1.14.53,1.92,1.81,2.86,2.75l4,.27,4.29,4h3.83l4.29,4,4,.23c1.93,1.65,3.23,4.31,6.45,3.81.56-.09,1.55.09,1.75.46,2.06,4,7.18,2.57,9.72,5.62.42.51.94.95,1.64,1.65h7.58l4.59,4,3.88.22,4.29,4h7.83l4.29,4,3.87.26,4.61,4h7.55l3.51,3.51,7.84.36,4.44,3.67h7.35l4.66,4.12h11.66l4.41,4.12h7.81l4.48,4.12H2757l4.46,3.84c4.26.2,8.22-.44,12.11.54l2.83,2.83c3.86,1.21,7.82.41,12.16.67l4.53,3.77h11.39l4.62,4.12h11.64l4.45,4.12h15.79l4.51,4.12h15.71l3,3c3.73,1.57,7.71.54,11.59.8,3.25.22,6.55-.36,9.57.36l3.17,3.17c5.06,1.12,10.36.14,15.6.48,4.55.29,9.19-.77,13.62.74l3.07,3.07h31.65l4.59,4.12h131.79l4.3-4h31.78l4.51-4.12h19.71l3.11-3.11c5.55-1.94,11.57.3,17.28-1.28l2.83-2.83c3.86-1.15,7.83-.39,12.15-.64l4.51-3.79h7.43l4.59-4.12h7.67l4.47-4.12h3.8c2.08-1.6,3.21-4.34,6.49-4,3,.31,3.75-3.87,6.33-3.83,3.1.05,4.56-2,6.66-3.44s5.16-.29,6.77-2.92c1.23-2,3.3-1.78,4.77-1.76l30.67-30.67,1.07-4.1c4.76-2.15,2-9.08,7.15-11.1v-3.84l4.12-4.44v-15.8l3.81-4.17v-16.05l-3.12-3.12c-1.94-5.54.31-11.56-1.28-17.28-.94-.94-2.42-1.74-2.73-2.86-.86-3.1-1.44-6.14-4.26-8.32-.7-.54-.34-2.45-.41-3.13l-34.94-34.94c-2.93-.54-3.69-.81-6.92-4l-4-.21-8.38-8c-1.5-.11-3.41.31-4-.38-2.24-2.69-5.25-3.24-8.27-4.36-2.2-.81-3.53-3.4-6.63-3.47-1.57,0-3.1-2.08-5.17-3.6h-7.18l-4.63-4.12h-7.66l-4.42-4.12h-3.8l-4.5-4.12h-7.72l-3-3c-3.78-1.63-7.76-.54-12.28-.91l-4.64-3.64h-7.08l-4.91-4.12h-11.42l-4.6-4.12h-11.66l-4.47-4.12h-11.75l-4.54-4.12h-11.69l-3.32-3.32c-5.38-1.44-11.35.2-16.68-.68l-3.24-3.24a6.2,6.2,0,0,0-1.75-.57c-4.67,0-9.33,0-14.36,0l-4.52-3.82H3013.5l-4.56-4.12h-15.71l-4.47-4.12h-15.82l-3.26-3.26c-5.28-2-11.31.36-17.07-1.07l-3.05-3.05c-5.44-1.52-11.42.19-16.71-.71l-3.27-3.27a6.39,6.39,0,0,0-1.76-.55c-6,0-12,0-18.34,0l-4.51-3.83h-15.49l-4.53-4.12h-15.75l-4.47-4.12h-15.66l-4.6-4.12h-11.65l-3.26-3.26c-5.46-1.49-11.44.17-16.7-.7l-3.31-3.31c-3.86-1.28-7.86.12-12.75-1.11l-3.83-3.28h-11.52l-4.5-4.12h-11.8l-4.42-4.12h-11.66l-4.63-4.12h-7.63l-3-3c-3.82-1.43-7.79-.48-12.22-.8l-4.59-3.7h-7.23l-4.77-4.12h-7.56l-4.46-4.12h-7.81l-4.41-4.12h-7.77c-2.07-1.73-3.33-4.43-6.57-3.93-.57.09-1.57-.07-1.76-.44-2.07-4-7.16-2.6-9.72-5.62-.43-.51-.94-.95-1.65-1.66h-7.56l-4.6-4-3.88-.25-4.28-4h-3.84l-4.28-4-4-.24-7.24-7.24c-3-.4-6-1.17-8.18-4-.55-.71-2.43-.39-4.94-.69L2595,2622h-6c-3.78-3.78-7.48-7.64-11.39-11.25-.78-.72-2.42-.51-3.67-.74a22.4,22.4,0,0,1-3.07-2.18c-9.42-9.35-18.79-18.75-27.77-27.73l-.53-4.53-11.31-11.31-.25-4-4-4.28v-3.85l-4-4.28-.26-4.17c-3-1.8-4-4.78-4.24-8.11-4.45-2.42-3.41-6.67-3.53-11l-3.77-4.58v-11.33l-4.12-4.68v-35.64l-4.09-4.38v-3.85l4.12-4.45v-35.76l3.14-3.14c2-5.49-.31-11.52,1.23-17.23l3.26-3.26.35-7.85,3.45-4.17c-.23-3.39,1.47-6,4.34-8.09v-7.83l4.12-4.42v-3.81l4-4.31.31-4.05,7.07-7.07c.21-1.25.37-2.5.66-3.73a3.61,3.61,0,0,1,.78-1.66c2.31-2.4,4.69-4.73,7.13-7.17v-4l15.31-14.88c.63-2.43.54-4.78,1.67-6,8.29-8.62,16.83-17,25.07-25.25,1.7-.12,3.49.31,4.21-.37,5.33-5,10.45-10.29,15.63-15.47l4-.19,8.38-8,4.11-.32c3.36-2.91,5.77-7.15,12.92-8.82,1.45-.77,3.7-4.12,6.71-6.8h3.77l4.47-4.12h4a9,9,0,0,1,8.16-4.29c1.94-3,5.25-3.2,8.16-4.44,2.21-.93,3.59-3.33,6.66-3.43,1.53,0,2.88-2.42,4.53-3.39s3.87.2,5.39-1.46c.9-1,1.88-1.89,2.88-2.89h7.84l4.47-4.12h3.7l4.58-4.12h7.78c1.94-5.38,9.25-2.07,11.14-7.25,3.88-1.05,7.84-.36,12.13-.58l4.48-3.82h7.5l4.52-4.12h11.77l4.47-4.12h11.64l4.61-4.12h11.64l3.33-3.33c5.41-1.32,11.38.17,16.61-.6l3.34-3.34a6.81,6.81,0,0,1,1.78-.51c6,0,12,0,18.32,0l4.48-3.85h23.53l4.49-4.12h31.81l4.22-4h180l3,3c3.65,1.84,7.64.69,11.5.9,3.32.18,6.66,0,10,0H3133l3.43,3.43c5,1.37,10.25.21,15.47.56,4.57.31,9.2-.59,13.71.61l2.86,2.86a6.74,6.74,0,0,0,1.78.52c6,0,12,0,18.32,0l4.49,3.85h15.53l4.49,4.12h15.81l4.41,4.12h11.81L3248,2193c4.27,2.42,9-.08,13.41,1.41l3.33,3.33,12.48.48,3.51,3.51h7.53l4.77,4.12h11.57l4.46,4.12h7.82l4.41,4.12H3329l4.68,4.12h7.59l3.38,3.38a31.11,31.11,0,0,0,5.36.34c3.1-.29,4.82,1.56,6.56,3.81h7.79l4.6,4,3.88.24,4.28,4h7.84l4.28,4,3.88.23,4.32,3.77h6.69l5.93,4c3.94-1.08,5.05,4.07,8.34,3.91s4.51,2.24,6.57,4h7.76l4.41,4.12h3.82l4.29,4,4,.28c1.9,1.68,3.24,4.11,6.46,3.84a4.27,4.27,0,0,1,3.12,1.86c2,3.09,6.42,1,8.36,4.17a30,30,0,0,0,3.57,4.08c-1.14,1.14-2.72,2-2.91,3a16.05,16.05,0,0,1-5.74,9.67c-4,3.49-7.78,7.22-11.08,10.31l-.26,5c-5.18,5.18-10.44,10.3-15.47,15.63-.69.73-.25,2.52-.35,4.17l-11.88,11.92c-.26,2,.06,3.74-.65,4.48-5.06,5.3-10.32,10.4-15.46,15.5v4.1l-11.4,11.4c-1,2.17-.44,4.81-2.69,6.84-4.91,4.43-9.44,9.29-13.86,13.71l-.35,4.35-5.64,5.64-4.24-3.94-4-.21-7.07-7.07-3.7-.72c-3.67-1.75-5.84-5.19-8.78-7.76l-4-.25-4.28-4h-3.85l-4.28-4-3.76-.23c-1.7-1.36-3.18-3.52-4.73-3.57-3-.1-4.62-1.82-6.69-3.43s-5.08-.49-7.64-.8c-.59-.07-1.43-.3-1.66-.72-1.81-3.35-5.61-2.68-8.26-4.26a16.83,16.83,0,0,1-2.86-2.78l-4-.21-4.3-4h-7.82l-4.46-4.12H3265l-4.47-3.86h-6.9l-4.72-3.67a25.83,25.83,0,0,0-5-.27c-3.17.35-4.69-1.84-6.71-3.85h-7.64l-4.64-4.12h-7.66l-4.41-4.12h-11.81l-4.5-4.12h-11.72l-3.23-3.23c-5.44-1.7-11.43.24-16.89-.89l-3.1-3.1a5.88,5.88,0,0,0-1.74-.6c-4.67,0-9.33,0-14.38,0l-4.55-3.81h-19.41l-4.6-4.12H3097.3l-4.47-4.12h-35.76l-4.17-3.8h-112l-3,3c-3.74,1.57-7.71.6-11.6.78-3.33.15-6.66,0-10,0H2905l-3.38,3.38a5.87,5.87,0,0,1-1.74.6c-6,0-12,0-18.38,0l-4.54,3.81h-15.42l-4.6,4.12h-11.66l-4.47,4.12h-7.75l-4.54,4.12h-7.33l-5,3.83c-3.94-1.09-5.2,3.87-8.34,3.87s-4.47,2.24-6.54,3.7c-1.49,1-3.85-.18-5.37,1.48-.9,1-1.88,1.89-2.88,2.89h-3.84l-8.44,8c-1.58.15-3.35-.22-4.07.48-10,9.76-19.9,19.66-29.73,29.45v4l-4,4.31-.32,4.06-3.09,3.09-1.07,9.07-2.91,2.91c-1.17,3.86-.4,7.83-.65,12.15l-3.78,4.52v27.84l3.73,4.17v11.65l4.12,4.47V2480a59,59,0,0,0,5.75,5.64c2.44,1.84,1.95,4.57,2.71,6.82l17,17,5.15.62,6.13,7.85H2781a34.54,34.54,0,0,0,2.86,2.82c2.47,1.94,3.78,5.37,7.85,5.26,3.23-.08,4.4,5,8.34,3.91l5.19,3.79h7.16l4.56,4,3.85.18,4.32,4h7.8l4.49,4.12H2845l4.8,4.12h7.51l3.1,3.1c3.86,1.19,7.82.4,12.16.66l4.52,3.78h11.4l4.61,4.12h11.64l4.47,4.12h15.77l4.52,4.12h15.7l3.28,3.28c5.41,1.57,11.39-.21,16.74.74l3.36,3.36c5.06,1.08,10.35.13,16,.5l4.48,3.77h15.44l4.58,4.12h19.69l4.47,4.12h15.73l4.55,4.12h19.68l3.13,3.13c3,1.49,6.31.38,9.53.69,2.58.25,5.24-.5,7.74.58l2.84,2.84a6.23,6.23,0,0,0,1.76.56c6,0,12,0,18.35,0l4.52,3.83h15.47l4.55,4.12h15.73l4.47,4.12h15.68l4.58,4.12h11.66l3.24,3.23c4.93,1.4,10.26-.06,15.42.71C3213.53,2622.38,3215,2624.13,3217.76,2626Z"/><path d="M2075.34,987.66l-.37,4.13-8,8.48v3.81a57.79,57.79,0,0,1-5.77,5.66c-2.45,1.84-1.82,4.62-2.71,6.82l-7.14,7.14-.33,4.12-8,8.38-.18,4a55.54,55.54,0,0,1-5.7,5.59c-2.47,1.84-1.72,4.66-2.71,6.82l-7.14,7.14-.28,4.08-8,8.38-.22,4-7.14,7.14c-1.14,2.09-.35,4.87-2.69,6.84-3.56,3-6.67,6.51-10,9.78v5.42l-8.1,8.1-.39,3-7.07,7.07-.58,5.06-7.88,5.49v5.9c-2.67,2.93-5.92,5.28-8,8.73q-.26,1.89-.53,3.78c-2.36,2.36-4.86,4.59-7,7.14-.68.82-.36,2.48-.62,5l-7.91,5.8V1176a59.4,59.4,0,0,1-5.74,5.64c-2.43,1.84-2,4.56-2.71,6.82l-7.14,7.14-.39,4.14-8,8.46v3.83a58.37,58.37,0,0,1-5.76,5.65c-2.45,1.84-1.87,4.6-2.71,6.82l-7.14,7.14-.35,4.13-8.05,8.48v3.8a57.56,57.56,0,0,1-5.78,5.67c-2.46,1.84-1.78,4.64-2.71,6.82l-7.14,7.14-.31,4.11-8,8.38-.19,4a55,55,0,0,1-5.7,5.59c-2.47,1.83-1.68,4.68-2.71,6.82l-7.14,7.14-.27,4.07-8,8.38-.24,4-7.07,7.07a16.74,16.74,0,0,1-.74,3.69c-1.66,3.71-5.17,5.85-7.74,8.8l-.23,4-4,4.2-4,4.18-.28,4.06-7.07,7.07a15.29,15.29,0,0,1-.71,3.7c-1.71,3.67-5.19,5.84-7.77,8.79l-.18,4-8,8.38-.32,4.11c-3.77,3.77-7.64,7.46-11.23,11.39-.7.76-.34,2.49-.51,4.13l-8,8.36v3.76l-4,4.44c.72,3.13-.93,5.08-3.06,6.7-1.84,4.52-.18,9-1,12.81l3.51,3.51a6.06,6.06,0,0,1,.57,1.75c0,36.66,0,73.32,0,110.35l3.82,4.53v115.44l4.11,4.58v127.66l4.11,4.46v103.76l4,4.34c0,41.58,0,41.58,1.9,45.82,3.31-3.31,6.63-6.42,9.65-9.81.69-.78.33-2.49.48-4.07l8-8.45v-3.83a58.57,58.57,0,0,1,5.76-5.65c2.44-1.84,1.88-4.6,2.71-6.82l7.14-7.14.35-4.07,3.94-4.33v-5l7.91-6.18c.27-2.6-.07-4.27.62-5.09,2.12-2.55,4.63-4.79,7-7.14l.54-3.8c1.85-3.6,5.61-5.49,8-9.27v-4.7L1871,1867l.39-3.46,7.07-7.07.61-4.61L1887,1844v-4.07c.44-.42,1-.85,1.4-1.34q3.32-3.62,6.61-7.26c-.59-3,1.58-4.64,3.19-6.72,1-1.36.62-3.82,1.62-5.26,1.5-2.15,3.67-3.84,5.56-5.73l1.41-1.41.23-4,8-8.38.27-4.07,7.07-7.07a15.39,15.39,0,0,1,.71-3.7c1.7-3.68,5.19-5.84,7.77-8.79l.23-4.93c.95-.78,2.54-2,4-3.32s2.71-2.84,3.95-4.15l.31-4.07,7.14-7.14c.92-2.19.12-5.16,2.75-6.77,2-1.22,1.86-3.26,1.77-6.42l8.09-6.32V1728a59,59,0,0,1,5.75-5.64c2.44-1.84,1.94-4.57,2.71-6.82l7.14-7.14.38-4.13,8-8.48v-3.82a58.12,58.12,0,0,1,5.77-5.66c2.45-1.84,1.84-4.61,2.71-6.82l7.14-7.14.33-4.06,3.95-4.32v-5l7.89-6.17c.28-2.6,0-4.27.64-5.09,2.12-2.55,4.63-4.78,7-7.14l.53-3.81c1.88-3.58,5.61-5.49,8-9.23v-4.75l8.07-7.82.39-3.35,7.08-7.08a9.24,9.24,0,0,1,4.23-8.22l.25-4.06,8-8.38c.09-1.45.17-2.75.25-4l7.07-7.07a16.26,16.26,0,0,1,.73-3.69c1.67-3.7,5.18-5.84,7.75-8.8l.27-5c.88-.71,2.5-1.88,4-3.22s2.72-2.83,4-4.16l.29-4.06,7.07-7.07,1.41-5.41,7.16-7.16v-3.79l4.12-4.43V1512a59.49,59.49,0,0,1,5.74-5.63c2.43-1.84,2-4.55,2.71-6.82l7.14-7.14.41-4.16,8-8.42v-3.85a58.64,58.64,0,0,1,5.76-5.65c2.44-1.84,1.9-4.59,2.71-6.82l7.14-7.14.36-4.13,8-8.48v-3.81c2.43-2.43,5.26-4.48,7-7.23,1.63-2.56,1.17-6.33,4.38-8.15-.07-4.36,2.75-7,5.65-9.66,1-.9,1.89-1.88,2.87-2.85v-5.25l8.06-7.68.39-3.52,7.07-7.07.51-3.81c1.87-3.59,5.66-5.45,8-9.29v-4.58l7.85-6.13.62-5.15,7.08-7.08a9.19,9.19,0,0,1,4.23-8.22l.24-4,8-8.39.26-4.06,7.07-7.07a15.71,15.71,0,0,1,.72-3.7c1.69-3.68,5.18-5.84,7.76-8.79l.2-4,8-8.38.31-4.11,7.07-7.07q.32-1.87.64-3.74c1.88-3.58,5.24-5.82,7.92-8.84v-3.76l4.12-4.47V1260a59.2,59.2,0,0,1,5.74-5.64c2.43-1.84,2-4.56,2.71-6.82l7.14-7.14.39-4.14,8-8.46v-3.83a58.31,58.31,0,0,1,5.76-5.65c2.45-1.84,1.86-4.6,2.71-6.82l7.14-7.14.35-4.12,8.06-8.48v-3.8c1-1,1.91-2,2.92-2.9,3-2.58,5.51-5.43,5.65-9.67,3.31-1.77,2.61-5.68,4.35-8.17,1.88-2.69,4.61-4.79,7-7.17v-5.16l7.87-6.15.59-5.15,7.07-7.07.67-5.17,7.81-6.07V1120c.45-.44,1-.88,1.4-1.37q3.31-3.62,6.6-7.26c-.59-3.05,1.59-4.64,3.19-6.72,1-1.36.62-3.82,1.62-5.26,1.5-2.15,3.67-3.84,5.56-5.73l1.41-1.41.22-4,8-8.38.28-4.08,7.07-7.07a15.18,15.18,0,0,1,.71-3.7c1.71-3.67,5.19-5.84,7.78-8.79l.18-4,8-8.38.32-4.12,7.14-7.14c.91-2.19.13-5.16,2.75-6.77,2-1.23,1.85-3.27,1.79-5.54l8.07-8.43V1008a58.86,58.86,0,0,1,5.75-5.64c2.44-1.84,1.92-4.58,2.71-6.82l7.14-7.14.44-4.82,11.65-9.53c19.08,0,40.35,0,61.61.1.77,0,1.52,1.48,2.29,2.27-3.1,1.88-3.92,4.94-4.24,8.23l-7.09,7.08c-.11,1.29-.21,2.58-.34,4.12l-8.06,8.48v3.8a57.35,57.35,0,0,1-5.79,5.67c-2.46,1.84-1.75,4.65-2.71,6.83l-7.14,7.14-.3,4.1-8,8.38-.21,4c-2.36,2.36-4.89,4.57-7,7.12-1.57,1.89-.2,5.19-2.88,6.79-3.08,1.85-1,6.26-4.19,8.32-2.19,1.4-3.83,3.68-5.72,5.56,0,1.33,0,2.67,0,5.22l-7.83,6.12-.65,5.15-7.07,7.07-.61,5.15-7.86,6.14V1112c-2.66,2.93-5.91,5.28-8,8.72q-.26,1.89-.52,3.79c-2.36,2.36-4.86,4.59-7,7.14-.68.82-.36,2.48-.64,5l-7.9,5.74V1148c-2.39,2.39-5.14,4.48-7,7.18-1.71,2.5-1.07,6.38-4.36,8.16-.09,4.27-2.67,7.07-5.65,9.67-1,.88-1.89,1.88-2.91,2.89v3.81l-8,8.48-.37,4.13-7.07,7.07c-.1,6-5.17,8.66-8.53,12.54v3.86l-8,8.38-.42,4.19-7.14,7.14c-.69,2.28-.29,5-2.71,6.82A59.74,59.74,0,0,0,2339,1248v5.14l-7.88,6.16-.57,5.16-7.07,7.07q-.26,1.89-.51,3.79c-2.08,3.42-5.32,5.79-8,8.71v3.91l-4,4.29-.22,4-7.07,7.07c-.24,1.23-.44,2.48-.73,3.7a3.72,3.72,0,0,1-.71,1.69c-2.31,2.4-4.69,4.74-7,7.09l-.24,4-8,8.38c-.09,1.47-.18,2.76-.26,4.06l-7.07,7.07a15.69,15.69,0,0,1-.72,3.7c-1.69,3.68-5.18,5.84-7.76,8.79l-.25,5c-.92.76-2.53,1.94-4,3.29s-2.71,2.84-4,4.16l-.3,4.06-7.07,7.07q-.32,1.87-.64,3.73c-1.88,3.58-5.24,5.82-7.92,8.84v3.76l-4.12,4.47V1400a59.22,59.22,0,0,1-5.74,5.64c-2.43,1.84-2,4.56-2.71,6.82l-7.14,7.14-.39,4.13-8,8.46v3.83a58.31,58.31,0,0,1-5.76,5.65c-2.45,1.84-1.87,4.6-2.71,6.82l-7.14,7.14c-.11,1.29-.22,2.58-.35,4.12l-8.06,8.48v3.8a57.55,57.55,0,0,1-5.78,5.67c-2.46,1.84-1.77,4.64-2.71,6.82l-7.14,7.14-.31,4.11-8,8.38-.2,4c-2.78,2-4.45,4.65-4.23,8.22l-7.08,7.08-.67,5.17-7.81,6.07v6.59l-8.09,8-.39,3.12-7.07,7.07-.62,5.15-7.85,6.13V1576c-2.66,2.92-5.9,5.28-8,8.71q-.25,1.9-.51,3.79l-7.08,7.08c.27,3.6-1.47,6.17-4.23,8.22l-.18,4-8,8.38-.32,4.12-7.07,7.07c-.1,6-5.17,8.66-8.56,12.57v3.8l-8,8.48-.36,4.12-7.07,7.07c-.1,6-5.17,8.66-8.54,12.54v3.84l-8,8.41-.41,4.16-7.14,7.14c-.71,2.27-.29,5-2.71,6.82A59.57,59.57,0,0,0,2035,1712v3.9l-4.12,4.43v3.79l-7.16,7.16-1.41,5.41-7.07,7.07-.29,4.09-8,8.38-.21,4c-2.57,3-6.08,5.1-7.75,8.8a16.26,16.26,0,0,0-.73,3.69l-7.07,7.07-.25,4-8,8.39-.25,4.05-7.07,7.07-1.41,5.41-7.07,7.07-.21,4-4,4.3v3.9l-7.09,7.09a34.79,34.79,0,0,1-.91,3.62c-1.41,3.88-5.08,5.88-7.58,8.88l-.43,4.09c-1.17,1.27-2.44,2.74-3.82,4.12s-2.91,2.71-4.19,3.9V1864a59.32,59.32,0,0,1-5.74,5.63c-2.43,1.84-2,4.55-2.72,6.82l-7.14,7.14-.4,4.15-8,8.44v3.84a58.64,58.64,0,0,1-5.76,5.65c-2.44,1.84-1.89,4.59-2.71,6.82l-7.14,7.14-.35,4.07-3.93,4.33v5.07l-8.05,7.48c-.13,1.22.21,2.89-.47,3.71-2.12,2.55-4.63,4.79-7,7.14q-.27,1.89-.54,3.78c-2,3.46-5.31,5.8-8,8.74v5.15l-7.88,6.15-.58,5.15-7.07,7.07q-.25,1.9-.5,3.79c-2.09,3.42-5.33,5.79-8,8.7v5.33l-8.08,8-.39,3.18-7.07,7.07-.62,5-7.86,5.35v6l-4,4.29-.27,4-7.07,7.07c-.22,1.24-.4,2.49-.69,3.72a3.65,3.65,0,0,1-.75,1.68c-2.31,2.4-4.69,4.73-7,7.09q-.09,2-.19,3.92c-1,.76-1.93,2.16-2.91,2.17-19.33.13-38.66.1-58,.07a5.72,5.72,0,0,1-1.74-.61c-.46-.48-1.29-.95-1.31-1.44-.11-4-.06-8-.06-11.84l-4.14-4.49V1903.86l-3-3c-.3-.54-.8-1.06-.86-1.63-.13-1.32,0-2.66,0-4q0-73,0-146a7.2,7.2,0,0,0-.48-1.79l-3-3c-1.21-5-.3-10.32-.47-15.56s0-10.66,0-16v-78c0-5.33.15-10.67,0-16s.79-10.52-.5-15.51L1723,1600v-25.36q0-36,0-72c0-3.88-2.84-5.87-6.34-4.23-2.22,1-1.57,3.36-1.66,5.39l-8,8.38-.28,4.08-11.31,11.31-.57,5.16-7.88,6.16V1544a74,74,0,0,1-5.73,5.64c-2.31,1.85-2.33,4.4-2.48,6.56l-7.38,7.38-.42,4.2-8,8.37V1580a58.82,58.82,0,0,1-5.75,5.64c-2.44,1.84-1.92,4.58-2.71,6.82l-11.43,11.43v3.85l-8,8.42-.41,4.17-7.14,7.14c-.72,2.28-.29,5-2.71,6.82A59.59,59.59,0,0,0,1619,1640v5.22l-8.06,7.62-.39,3.6-7.07,7.07q-.26,1.89-.52,3.79c-2.07,3.43-5.32,5.79-8,8.72v4.12c-3.25,3.21-6.38,6.7-9.95,9.68-2.35,2-1.62,4.71-2.69,6.84l-7.14,7.14-.25,4-8,8.38-.26,4.05-7.07,7.07q-.34,1.86-.68,3.72c-1.81,3.63-5.21,5.83-7.8,8.77l-.21,4-8,8.38-.3,4.1-11.31,11.31-.54,5.09-7.9,5.7V1784a72.64,72.64,0,0,1-5.73,5.65c-2.32,1.85-2.28,4.42-2.47,6.56l-7.38,7.38-.4,4.15-8,8.44v3.84a69.92,69.92,0,0,1-5.75,5.66c-2.34,1.85-2.15,4.47-2.47,6.56l-7.39,7.39L1483,1844l-11.89,11.91-.45,4.45-7.07,7.07q-.27,1.89-.54,3.78c-2,3.46-5.31,5.8-8,8.74v5.26L1447,1893l-.39,3.47-7.07,7.07-.5,3.81c-1.89,3.58-5.66,5.46-8,9.27v4.61l-7.84,6.13-.63,5.15-11.31,11.31-.23,4-8,8.38-.27,4.07-7.07,7.07a15.42,15.42,0,0,1-.71,3.7c-1.7,3.68-5.19,5.84-7.77,8.79l-.23,4.93c-.95.78-2.54,2-4,3.32s-2.7,2.84-3.95,4.16l-.31,4.07-7.07,7.07q-.32,1.87-.63,3.74c-1.89,3.57-5.25,5.82-7.93,8.83v3.8l-12,12.44-.67,4.41-7.07,7.07-.38,4.13-8,8.47v3.82l-7.14,7.13-2.32,6.79H1265c-.66-1.07-1.81-2.09-1.89-3.2-.25-3.31-.09-6.66-.09-10q0-536.92,0-1073.84c0-3.9-.67-7.87.67-11.69,7.24-1.51,12.82-1.61,65.43-1.14a3.65,3.65,0,0,1,1.87,3.23q0,9,0,18v424.23l-4,4.6v11.44q0,265,0,529.92c0,2.51,1,4.2,2.74,4.42,2,.24,4.12.06,5.15-2,.51-1,.09-2.55.09-5.16l8.06-7.61.39-3.62,11.31-11.31.29-4.09,8-8.38.21-4c2.58-3,6.08-5.11,7.75-8.8a16.17,16.17,0,0,0,.73-3.7l7.07-7.07.25-4,8-8.38.25-4.05,7.14-7.14c1.06-2.13.35-4.87,2.69-6.83,3.56-3,6.7-6.47,9.94-9.66V1860l7.09-7.09,1.42-5.41,7.07-7.07.54-5.09,7.9-5.66V1824a59.42,59.42,0,0,1,5.74-5.63c2.43-1.84,2-4.55,2.71-6.82l7.14-7.14.4-4.15,8-8.43v-3.84l11.37-11.37c.1-6,5.17-8.66,8.53-12.54V1759l7.91-6.18.52-5.16,7.07-7.07q.27-1.89.54-3.78c2-3.46,5.3-5.8,8-8.74v-5.25l8.06-7.71.39-3.49,7.07-7.07.61-4.57L1527,1688l.24-4.21,7.07-7.07,1.41-5.41,7.07-7.07.23-4,8-8.38.27-4.07,7.07-7.07q.34-1.86.67-3.72c1.83-3.61,5.22-5.83,7.81-8.76.06-1.31.13-2.61.19-4l11.9-12.25.63-4.44,7.07-7.07.52-5.1,7.91-5.74V1584a59.06,59.06,0,0,1,5.75-5.64c2.44-1.84,1.95-4.57,2.71-6.82l7.14-7.14.38-4.13,8-8.47v-3.82l7.13-7.13,1.41-5.41L1639,1524v-5.12l7.9-6.17.55-5.16,7.07-7.07q.26-1.89.52-3.78c2.06-3.44,5.31-5.79,8-8.72v-5.16l7.86-6.14.6-5.15,7.07-7.07.66-5.16,7.82-6.09V1448c2.82-2.81,5.43-5.91,8.55-8.38,2.83-2.25,3.19-5.33,4.26-8.29.41-1.14,1.8-1.92,3-3.09v-44.1l-3.67-4.17V1152.33l-4.11-4.4q0-81.88,0-163.9c1-.67,2.1-1.93,3.15-1.93,18-.12,36-.09,54-.05.56,0,1.11.5,1.67.77.4.5,1.14,1,1.14,1.51.06,26.63,0,53.27,0,79.69l3,3c.32.53.86,1,.92,1.61a39,39,0,0,1,0,4q0,127,0,254a8.43,8.43,0,0,0,.41,1.82l3,3c1.32,5,.19,10.27.54,15.5.3,4.57-.63,9.2.63,13.63,1,1.82,2.07,1.82,2.83-.09a16.25,16.25,0,0,0,.56-3.77c2.09-3.42,5.33-5.79,8-8.71v-5.32l8.08-7.93.39-3.22,7.07-7.07.64-5.15,7.84-6.12v-6.61l8.1-8.1.39-3,7.07-7.07.57-5.07,7.88-5.52V1272c2.67-2.94,5.93-5.28,8-8.73q.26-1.89.53-3.78c2.36-2.36,4.86-4.59,7-7.14.68-.82.35-2.49.61-5l7.91-5.83V1236a59.14,59.14,0,0,1,5.75-5.64c2.43-1.84,2-4.56,2.71-6.82l7.14-7.14.41-4.41,11.89-11.9.42-4.41,7.07-7.07c.1-6,5.16-8.66,8.52-12.53v-5.11l7.9-6.17c.27-2.6-.05-4.27.63-5.09,2.12-2.55,4.63-4.78,7-7.14q.27-1.89.53-3.78c2.05-3.45,5.31-5.79,8-8.73v-4.19a55.79,55.79,0,0,1,4.24-4c2.74-2.13,3.49-5,4.44-8.2.66-2.18,3.22-3.52,3.53-6.57.33-3.36,4-4.94,6.17-7.37,1.76-2,3.75-3.79,5.63-5.68,0-1.33,0-2.66,0-5.21l7.83-6.12.64-5.15,7.07-7.07.6-5.05L1963,1070v-6l7.87-7.87.63-4.63,7.07-7.07.56-5.08,7.89-5.61V1028a59.73,59.73,0,0,1,5.73-5.63c2.43-1.84,2-4.54,2.71-6.82l7.14-7.14.42-4.18,8-8.39v-3.86L2021,982c18,0,36,0,54-.06,1.54,0,2.75,0,3.39,1.49.38.87-.31,1.85-1.62,2.83A14.38,14.38,0,0,0,2075.34,987.66Z"/><path d="M3416.91,974l4.4,4.11h15.8a8.54,8.54,0,0,1,1.49,1.54,4,4,0,0,1,.39,1.83c0,2.67,0,5.33,0,8q0,537.94,0,1075.88c0,2.53.9,5.26-.88,7.57-.56.37-1.09,1-1.61,1q-649.87.06-1300.16,0l-1.6-5.41,4.26-4.65v-5l7.89-6.16.56-5.15,7.07-7.07.52-3.81c1.87-3.6,5.66-5.45,8-9.3v-4.58l7.85-6.13c.31-2.61.46-3.88.62-5.15l7.07-7.07.64-5.15,7.84-6.12v-6.45l7.81-6.07c.34-2.64.51-3.91.67-5.17l7.08-7.08c-.22-3.57,1.45-6.19,4.23-8.22l.2-4,8-8.38.31-4.11,7.07-7.07c.1-6,5.17-8.66,8.56-12.57v-3.79l8.05-8.48.35-4.13,7.07-7.07c.1-6,5.17-8.66,8.54-12.55v-3.82l8-8.46.39-4.14,7.07-7.07c.1-6,5.17-8.66,8.52-12.53v-5.11l8.09-6.32c-.11-3.16-.21-5.19,1.78-6.41,2.63-1.62,1.8-4.6,2.75-6.77l7.14-7.14.3-4.1,8-8.38c.07-1.4.14-2.7.21-4a55,55,0,0,1,5.71-5.59c2.47-1.84,1.66-4.69,2.71-6.82l7.14-7.14.26-4.05,8-8.39.25-4,7.07-7.07a16.26,16.26,0,0,1,.73-3.69c1.67-3.7,5.18-5.84,7.75-8.8l.21-4,8-8.38c.11-1.5.2-2.8.29-4.09l7.07-7.07a14.85,14.85,0,0,1,.7-3.71c1.72-3.66,5.2-5.84,7.87-8.88v-3.78l8.06-8.48.33-4.13c3-1.93,4.08-4.84,4.23-8.22l7.08-7.08.4-4.16,8-8.43v-3.84a58.63,58.63,0,0,1,5.76-5.65c2.44-1.84,1.89-4.59,2.71-6.82l7.14-7.14.36-4.12,8.05-8.48v-3.81a57.64,57.64,0,0,1,5.78-5.67c2.46-1.84,1.79-4.63,2.71-6.83l7.14-7.14c.1-1.29.2-2.58.32-4.11l8-8.38.19-4c.94-.94,1.83-2,2.84-2.82,3-2.57,5.44-5.46,5.65-9.67,3.34-1.76,2.57-5.7,4.34-8.17,1.92-2.67,4.61-4.78,7-7.15v-5.2l7.84-6.12.63-5.15,7.07-7.07c.16-1.27.31-2.54.63-5.15l7.85-6.13V1524c2.37-2.37,4.74-4.71,7.06-7.1a7.39,7.39,0,0,0,.93-1.61l.5-3.79,7.07-7.07.57-5.15,7.88-6.15V1488c2.67-2.94,5.94-5.28,8-8.74q.27-1.89.54-3.78c2.36-2.36,4.86-4.59,7-7.14.68-.82.35-2.49.51-4.13l8-8.36V1452c2.41-2.41,5.18-4.48,7-7.2,1.68-2.52,1.11-6.36,4.37-8.16,0-4.31,2.7-7.05,5.65-9.67,1-.88,1.89-1.88,2.89-2.87v-3.85l8-8.42.41-4.16,7.14-7.14c.71-2.27.29-5,2.71-6.82A59.71,59.71,0,0,0,2583,1388v-5.13l7.89-6.16.56-5.16,7.07-7.07.51-3.79c2.08-3.43,5.32-5.79,8-8.72v-5.18l7.86-6.14.61-5.15,7.07-7.07.64-5.15,7.83-6.12v-5.14l4-4.28.26-4,7.07-7.07a15.81,15.81,0,0,1,.72-3.7c1.69-3.69,5.18-5.84,7.76-8.8l.2-4,8-8.38.3-4.1,7.07-7.07c.1-6,5.17-8.66,8.56-12.58v-3.79l8.06-8.48.35-4.13,7.07-7.07c.1-6,5.17-8.66,8.54-12.55v-3.82l8-8.46.39-4.14,7.07-7.07c.1-6,5.17-8.66,8.53-12.53v-3.87l4.12-4.47v-3.77l7.15-7.15,1.41-5.41,7.07-7.07.3-4.1,8-8.38.2-4a54.75,54.75,0,0,1,5.7-5.59c2.48-1.83,1.66-4.69,2.71-6.82l7.14-7.14.26-4.06,8-8.39.24-4,7.08-7.08c.23-1.23.42-2.48.71-3.7a3.69,3.69,0,0,1,.72-1.68c2.31-2.4,4.69-4.74,7-7.09l.22-4,8-8.38.29-4.09,7.24-7.24c.31-3.07,1.23-6,4-8.18.71-.56.36-2.45.65-5.05l7.89-6.16V1024a59.58,59.58,0,0,1,5.74-5.63c2.43-1.84,2-4.55,2.71-6.82l7.14-7.14.41-4.16,8-8.42v-3.85c2.41-2.41,5.1-4.53,7-7.2,1.37-1.91,1.71-4.56,2.47-6.74ZM2242.66,1996.33c-2.52,3-6.14,5-7.63,8.85a25.19,25.19,0,0,0-.85,3.64l-7.09,7.09c.12,1.86-.9,4,1.32,5.44a8.39,8.39,0,0,0,1.63.62,11.53,11.53,0,0,0,2,0H3233.86a13.11,13.11,0,0,1,2,0,10.55,10.55,0,0,1,1.75.58l2.83,2.83c17.5.7,105.81,1.05,143.74.53.56,0,1.1-.52,1.66-.79.39-.5,1.12-1,1.12-1.51q.07-197.93,0-395.5l3.84-4.34c1.64-4.56-3.16-5.68-3.84-8.78.25-3.9-.59-7.87.68-11.72L3391,1600c0-4.76,0-10,0-15.29,0-.54-.57-1.08-.88-1.62l-2.83-2.83-.26-4,4-4.32q0-271.81-.05-543.81c0-.48-.83-1-1.28-1.45a5.44,5.44,0,0,0-1.72-.64q-251,0-501.91,0c-1.33,0-2.67-.07-4,0a6.38,6.38,0,0,0-1.72.65,87.88,87.88,0,0,1-7.12,7c-2.38,1.89-1.92,4.58-2.71,6.83l-7.14,7.14-.37,4.13-8,8.48v3.8c-3.39,3.91-8.45,6.55-8.55,12.56l-7.07,7.07-.33,4.12-8.06,8.48v3.83c-2.83,2.12-4.61,4.68-4.32,8.29l-7.08,7.08-.51,3.79a7.24,7.24,0,0,1-.91,1.61c-2.32,2.39-4.7,4.73-7.07,7.1v5.18l-7.86,6.14-.6,5.15-7.07,7.07-.65,5.15-7.83,6.12v6.44l-7.83,6.11c-.33,2.62-.49,3.88-.66,5.15l-7.07,7.07-.6,5.15-7.86,6.14V1204c-2.66,2.93-5.92,5.28-8,8.72q-.26,1.89-.52,3.78l-7.08,7.08c.3,3.62-1.49,6.17-4.31,8.29v3.83l-8.06,8.48-.33,4.12-7.14,7.14c-.88,2.2-.26,5-2.71,6.82a58.2,58.2,0,0,0-5.77,5.66v3.81l-8,8.48c-.14,1.56-.26,2.84-.38,4.13l-7.14,7.14c-.79,2.25-.28,5-2.71,6.82A58.8,58.8,0,0,0,2695,1304v3.87l-8,8.37c-.16,1.64-.29,2.92-.42,4.19-2.36,2.36-4.74,4.69-7,7.1a4.06,4.06,0,0,0-.57,1.75c-.31,1.21-.58,2.43-.87,3.63L2671,1340v3.9l-4,4.33c-.06,1.37-.12,2.68-.18,4l-7.07,7.07-1.41,5.41-7.07,7.07-.28,4.08-8,8.38-.22,4c-2.57,3-6.08,5.1-7.74,8.8a16.7,16.7,0,0,0-.74,3.69l-7.07,7.07-.24,4-8,8.38-.26,4.06-7.14,7.14c-1,2.14-.24,5-2.71,6.82a54.79,54.79,0,0,0-5.7,5.59l-.2,4-8,8.38c-.11,1.52-.21,2.81-.31,4.1l-7.07,7.07-1.41,5.41-7.15,7.15v3.77l-4.12,4.47v3.64c-3.22,4.2-8.53,6.68-8.52,12.76l-7.07,7.07-.39,4.14-8,8.46V1528c-3.38,3.9-8.44,6.54-8.54,12.55l-7.07,7.07-.35,4.12-8.05,8.48v3.8c-2.43,2.43-4.81,4.77-7.13,7.17a3.61,3.61,0,0,0-.78,1.66c-.28,1.23-.44,2.49-.66,3.73l-7.07,7.07-.31,4.11-8,8.38-.19,4c-2.78,2-4.47,4.64-4.23,8.22l-7.08,7.08-.39,3-8.1,8.1v6.61l-7.84,6.13c-.32,2.61-.48,3.88-.63,5.15l-7.07,7.07-.62,5.15-7.85,6.13V1668c-2.66,2.92-5.9,5.29-8,8.71q-.25,1.9-.51,3.79l-7.07,7.07-.57,5.15-7.88,6.16V1704c-2.67,2.94-5.94,5.28-8,8.74l-.54,3.78c-2.36,2.36-4.86,4.59-7,7.14-.68.82-.35,2.49-.61,5.09l-7.91,6.18v5l-3.93,4.33-.35,4.07-7.14,7.14c-.83,2.22-.27,5-2.71,6.82a58.52,58.52,0,0,0-5.76,5.65v3.84l-8,8.44c-.15,1.58-.28,2.87-.4,4.15l-7.14,7.14c-.73,2.27-.28,5-2.71,6.82A59.47,59.47,0,0,0,2367,1804v5.12l-7.9,6.17c-.28,2.6,0,4.26-.63,5.08-2.12,2.55-4.63,4.78-7,7.14q-.26,1.89-.52,3.78c-2.06,3.44-5.32,5.79-8,8.72v5.16l-7.86,6.14c-.3,2.61-.45,3.88-.6,5.15l-7.07,7.07-.39,3-8.1,8.1v5.3l-4,4.28c-.09,1.44-.17,2.74-.25,4l-7.07,7.07a16.26,16.26,0,0,1-.73,3.69c-1.67,3.7-5.18,5.84-7.75,8.8l-.22,4-8,8.38-.29,4.09-7.14,7.14c-1,2.16-.24,5-2.71,6.82a55.59,55.59,0,0,0-5.7,5.59l-.18,4-8,8.38c-.12,1.54-.22,2.83-.33,4.12l-7.14,7.14c-.9,2.2-.26,5-2.71,6.82a58,58,0,0,0-5.77,5.66v3.81l-8,8.48Z"/><path d="M1031,974.81a43.83,43.83,0,0,1,5.16-.78q24-.06,48,0c.55,0,1.11.51,1.66.78.4.5,1.14,1,1.14,1.5q.07,1085.84,0,2171.68c-1.05.67-2.1,1.91-3.16,1.92-16.66.12-33.33.09-50,.05-.55,0-1.11-.51-1.66-.78-.4-.5-1.14-1-1.14-1.5Q1031,2061.85,1031,974.81Z"/><path d="M2399.35,1475.65l-.37,4.12-8,8.47v3.82a69.14,69.14,0,0,1-5.76,5.67c-2.35,1.85-2.12,4.49-2.47,6.56l-7.38,7.38-.35,4.12-8.05,8.47v3.86c-2.51,2.24-5.1,4.38-3.94,7.88l-7.51,7.51c-.7,2.28-.29,5-2.71,6.82A59.75,59.75,0,0,0,2347,1556v5.21l-8.06,7.62c-.11,1.06.21,2.72-.47,3.54-2.12,2.55-4.62,4.78-7,7.14q-.27,1.89-.52,3.78c-2.05,3.44-5.31,5.79-8,8.73v5.25L2315,1605l-.39,3.44-7.07,7.07q-.25,1.89-.5,3.79c-2.09,3.42-5.32,5.79-8,8.71v5.3l-8.08,7.89-.39,3.27-7.07,7.07-.64,5-7.84,5.23v6.14l-4,4.28-.24,4-7.07,7.07c-.24,1.23-.43,2.48-.72,3.7a3.71,3.71,0,0,1-.71,1.69c-2.31,2.4-4.69,4.73-7,7.09l-.24,4-4,4.19-4,4.19-.26,4-7.07,7.07a16,16,0,0,1-.73,3.69c-1.68,3.69-5.18,5.84-7.75,8.79l-.26,5c-.89.71-2.5,1.88-4,3.22s-2.72,2.83-4,4.16l-.28,4.06-7.07,7.07c-.22,1.24-.4,2.49-.68,3.72a3.64,3.64,0,0,1-.75,1.67c-2.31,2.4-4.69,4.73-7,7.09l-.23,4.94c-.94.77-2.54,2-4,3.31s-2.71,2.83-4,4.15l-.3,4.07a9.4,9.4,0,0,0-4.23,8.22c-2.37,2.37-4.87,4.6-7,7.15-.68.82-.36,2.48-.63,5l-7.9,5.73V1816a59.77,59.77,0,0,1-5.74,5.63c-2.42,1.84-2,4.54-2.71,6.82l-7.13,7.13c-.13,1.28-.26,2.56-.51,5.09l-7.92,5.78V1852a59.27,59.27,0,0,1-5.75,5.64c-2.43,1.84-2,4.56-2.71,6.81l-7.14,7.14-.39,4.14-8,8.44v3.84a58.75,58.75,0,0,1-5.76,5.65c-2.44,1.84-1.9,4.59-2.71,6.82l-7.14,7.13-.36,4.07-3.93,4.33v3.73l-8,8.42-.4,4.15-7.07,7.07c.06,6.12-5.35,8.53-8.52,12.82v4.89l-8.05,7.52c-.12,1.17.22,2.84-.47,3.66-2.12,2.55-4.62,4.78-7,7.2-.69,2.29-.29,5-2.71,6.82A59.82,59.82,0,0,0,2063,1988v5.23l-8.06,7.65c-.11,1,.21,2.68-.47,3.5-2.12,2.55-4.63,4.78-7,7.14q-.26,1.89-.52,3.78c-2.06,3.44-5.31,5.79-8,8.72v5.26L2031,2037l-.39,3.42-7.08,7.08a9.3,9.3,0,0,1-4.23,8.22l-.28,4.09-8,8.38-.22,4a3.55,3.55,0,0,1-3.26,1.8q-22,0-44,0c-3.33,0-6.66,0-10,0-1.4,0-2.58-2.09-2.55-4.6a9,9,0,0,1,.4-1.82l7.07-7.07q.26-1.89.51-3.79c2.08-3.43,5.32-5.79,8-8.71v-5.28l8.07-7.86.39-3.31,7.07-7.07.65-5,7.83-5.21v-6.15l4-4.28.23-4,7.07-7.07a17.12,17.12,0,0,1,.75-3.69c1.65-3.71,5.16-5.84,7.73-8.8l.24-4,4-4.19,4-4.19.25-4,7.07-7.07a16,16,0,0,1,.73-3.69c1.67-3.69,5.17-5.84,7.75-8.8l.27-5.05c.87-.7,2.49-1.86,3.94-3.2s2.72-2.83,4-4.16l.28-4.05,7.07-7.07a15.28,15.28,0,0,1,.71-3.69c1.7-3.67,5.19-5.84,7.77-8.79l.24-5c.93-.76,2.53-1.94,4-3.29s2.71-2.83,4-4.16l.3-4.06,7.23-7.23c.29-3.08,1.23-6,4-8.18.71-.56.36-2.45.63-5l7.9-5.64V1860a59.83,59.83,0,0,1,5.73-5.63c2.42-1.84,2-4.53,2.71-6.82,2.42-2.42,4.93-4.66,7-7.21.68-.82.35-2.49.6-5l7.91-5.75V1824a59.29,59.29,0,0,1,5.74-5.64c2.43-1.84,2-4.56,2.71-6.82l7.14-7.14.4-4.15,8-8.42v-3.84a58.94,58.94,0,0,1,5.75-5.65c2.44-1.84,1.91-4.58,2.71-6.82l7.14-7.14.37-4.12,8-8.47v-3.7l3.91-4.34.39-4.08,7.07-7.07c.1-6,5.16-8.65,8.52-12.53v-5.17l8.05-7.49c.12-1.21.25-2.48.38-3.76l7.13-7.13c.71-2.28.29-5,2.71-6.82A59.82,59.82,0,0,0,2203,1688v-5.2l8.05-7.61c.11-1.08-.21-2.74.47-3.56,2.12-2.55,4.63-4.78,7-7.14q.27-1.89.53-3.78c2.05-3.45,5.31-5.79,8-8.73v-5.25L2235,1639l.39-3.46,7.07-7.07.51-3.81c1.87-3.59,5.66-5.45,8-9.29v-3.3l4-4.29c.07-1.42.14-2.72.21-4l7.07-7.07,1.41-5.41,7.07-7.07c.08-1.3.17-2.6.26-4.06l8-8.38.23-4c2.57-3,6.08-5.09,7.73-8.8a16.85,16.85,0,0,0,.74-3.69l7.07-7.07c.08-1.3.15-2.6.24-4l8-8.38c.09-1.46.17-2.76.26-4.06l7.07-7.07a16.1,16.1,0,0,1,.73-3.69c1.68-3.69,5.18-5.84,7.75-8.79l.27-5c.88-.7,2.49-1.87,3.95-3.21s2.72-2.83,4-4.16l.28-4.05,7.07-7.07,1.41-5.41,7.07-7.07.19-4,4-4.3V1464l7.1-7.1a33.47,33.47,0,0,1,.9-3.62c1.42-3.88,5.08-5.88,7.58-8.87l.44-4.09c1.16-1.27,2.44-2.74,3.81-4.12s2.9-2.72,4.19-3.92V1428a59.75,59.75,0,0,1,5.73-5.63c2.42-1.84,2-4.54,2.71-6.82,2.42-2.42,4.93-4.66,7-7.21.68-.82.35-2.49.5-4,1.18-1.28,2.45-2.75,3.84-4.12s2.93-2.69,4.18-3.83V1392a59.25,59.25,0,0,1,5.74-5.64c2.43-1.84,2-4.56,2.71-6.82l7.14-7.14.4-4.15,8-8.43v-3.84c2.41-2.41,5.19-4.48,7-7.2,1.67-2.53,1.12-6.35,4.36-8.15,0-4.31,2.7-7,5.64-9.66,1-.88,1.89-1.87,2.89-2.87v-3.84l8-8.43.4-4.15,7.07-7.07c-.15-6.17,5.39-8.49,8.52-12.86v-4.84l8.05-7.51c.12-1.19-.22-2.85.47-3.67,2.12-2.55,4.62-4.78,7-7.21.7-2.28.29-5,2.71-6.82A59.73,59.73,0,0,0,2487,1256v-5.22l8.06-7.63.38-3.59c2.87-3.38,7.26-5.69,8.28-12,1.37-2.3,4.63-4.64,7.29-7.58v-3.9l4-4.31.19-4,7.07-7.07,1.41-5.41,7.07-7.07.28-4.08,8-8.38.21-4c2.84-4.15,9.89-5.44,7.76-11.76l7.79-7.79.26-4.06,8-8.38.24-4,7.07-7.07c.24-1.23.43-2.48.72-3.7a3.7,3.7,0,0,1,.71-1.69c2.31-2.4,4.69-4.73,7-7.09l.23-4,4-4.19,4-4.19.26-4.05,7.24-7.24c.38-3,1.18-6,4-8.18.71-.55.38-2.43.68-4.94L2607,1074v-6c2.66-2.92,5.9-5.28,8-8.71l.51-3.79,7.07-7.07.56-5.06,7.89-5.55V1032c2.67-2.94,5.92-5.28,8-8.73q.26-1.89.53-3.78c2.36-2.36,4.86-4.59,7-7.14.68-.82.36-2.48.63-5l7.9-5.77V996a59.66,59.66,0,0,1,5.73-5.63,5.12,5.12,0,0,0,2-4.57l9.57-11.56H2725c2.59,1.5,1.8,3.67,2,5.55l-8,8.43c-.12,1.54-.22,2.83-.33,4.12l-7.14,7.13c-.91,2.19-.29,4.95-2.69,6.84-1.64,1.3-1.36,1.66-2.06,6.46l-7.86,5.72V1024a72.1,72.1,0,0,1-5.74,5.65c-2.32,1.85-2.25,4.43-2.47,6.56l-7.38,7.38-.4,4.15-8,8.43v3.84a58.83,58.83,0,0,1-5.75,5.65c-2.44,1.84-1.91,4.58-2.71,6.82l-7.13,7.13-.37,4.12-8,8.47v3.82a58.33,58.33,0,0,1-5.76,5.66c-2.45,1.84-1.86,4.6-2.71,6.82l-7.14,7.14-.34,4.06-3.94,4.33v5.06l-8,7.49c-.12,1.22.21,2.89-.47,3.71-2.12,2.55-4.63,4.78-7,7.2-.7,2.28-.29,5-2.71,6.82A59.71,59.71,0,0,0,2607,1160v5.21l-8.06,7.61c-.11,1.06.21,2.72-.47,3.55-2.12,2.55-4.63,4.78-7,7.14q-.26,1.89-.53,3.78c-2.05,3.45-5.31,5.79-8,8.73v5.25L2575,1209l-.39,3.45-7.07,7.07q-.25,1.89-.5,3.79c-2.08,3.42-5.32,5.79-8,8.71v5.29l-8.07,7.88-.39,3.28-7.08,7.08a9.24,9.24,0,0,1-4.23,8.22l-.26,4.07-8,8.38-.24,4-7.07,7.07a16.93,16.93,0,0,1-.74,3.69c-1.65,3.71-5.17,5.84-7.73,8.8l-.23,4-4,4.19-4,4.19-.26,4-7.07,7.07a16.06,16.06,0,0,1-.73,3.69c-1.68,3.69-5.18,5.84-7.75,8.79l-.27,5c-.88.71-2.5,1.87-3.95,3.21s-2.72,2.83-4,4.16l-.28,4.06-7.07,7.07c-.22,1.24-.4,2.49-.68,3.72a3.64,3.64,0,0,1-.75,1.67c-2.31,2.4-4.69,4.73-7,7.09l-.24,4.95c-.94.77-2.54,2-4,3.31s-2.71,2.83-4,4.15l-.3,4.07a9.39,9.39,0,0,0-4.23,8.22c-2.37,2.37-4.87,4.6-7,7.15-.68.82-.36,2.48-.63,5l-7.9,5.72V1420a73.42,73.42,0,0,1-5.73,5.64c-2.31,1.85-2.31,4.4-2.47,6.56l-7.38,7.38-.51,5.09-7.92,5.77V1456c-2.4,2.4-4.85,4.67-7.08,7.14-1.71,1.89-.27,5.06-2.82,6.89C2402.91,1471.6,2401.23,1473.77,2399.35,1475.65Z"/></svg>